<?xml version="1.0" standalone="no"?>
<!DOCTYPE svg PUBLIC "-//W3C//DTD SVG 20010904//EN"
 "http://www.w3.org/TR/2001/REC-SVG-20010904/DTD/svg10.dtd">
<svg version="1.0" xmlns="http://www.w3.org/2000/svg"
 width="497.000000pt" height="497.000000pt" viewBox="0 0 497.000000 497.000000"
 preserveAspectRatio="xMidYMid meet">

<g transform="translate(0.000000,497.000000) scale(0.100000,-0.100000)"
fill="#000000" stroke="none">
<path d="M2230 4914 c-92 -11 -276 -47 -376 -73 -451 -119 -891 -394 -1194
-746 -290 -338 -469 -712 -556 -1160 -26 -132 -28 -157 -28 -420 0 -249 2
-293 22 -400 79 -418 218 -741 457 -1060 350 -467 884 -804 1450 -914 156 -30
164 -31 324 -41 868 -52 1680 350 2160 1068 596 890 530 2074 -161 2898 -318
379 -768 662 -1248 784 -203 52 -295 62 -560 65 -140 2 -271 1 -290 -1z m562
-89 c80 -10 125 -22 181 -48 249 -115 465 -334 581 -588 146 -321 142 -705 -9
-1011 -116 -235 -293 -418 -513 -532 -181 -93 -303 -124 -537 -136 -251 -13
-392 -49 -571 -144 -433 -231 -683 -723 -610 -1201 62 -396 298 -730 638 -900
51 -25 95 -49 98 -52 18 -19 -289 69 -414 119 -306 122 -564 289 -793 515
-376 371 -607 838 -678 1368 -21 156 -21 432 0 590 104 784 578 1449 1280
1795 295 145 543 212 905 244 76 7 329 -4 442 -19z m-200 -3212 c60 -27 115
-84 146 -151 62 -137 7 -300 -128 -376 -50 -28 -63 -31 -140 -31 -64 0 -94 5
-120 19 -68 36 -109 77 -139 138 -82 163 -1 357 173 415 54 17 151 11 208 -14z"/>
<path d="M2354 3969 c-67 -25 -123 -75 -159 -140 -27 -49 -30 -62 -30 -149 0
-102 13 -140 71 -210 107 -127 312 -140 440 -27 69 61 104 140 104 238 0 65
-5 85 -31 137 -17 34 -49 77 -71 97 -85 72 -218 95 -324 54z"/>
</g>
</svg>
